<svg width="163" height="163" viewBox="0 0 163 163" fill="none" xmlns="http://www.w3.org/2000/svg">
<g clip-path="url(#clip0_43_2)">
<path d="M81.26 0C110.87 0.58 134.35 2.64 146.82 15.7C159.88 28.17 161.94 51.65 162.52 81.26C161.94 110.87 159.88 134.35 146.82 146.82C134.35 159.88 110.87 161.94 81.26 162.52C51.65 161.94 28.17 159.88 15.7 146.82C2.64 134.35 0.59 110.87 0 81.26C0.59 51.65 2.64 28.17 15.7 15.7C28.17 2.64 51.65 0.58 81.26 0Z" fill="#AE4BFF"/>
<path d="M114.89 101.26C113.47 98.8754 111.615 96.779 109.42 95.08C107.095 93.3482 104.43 92.1281 101.6 91.5C100.204 91.1237 98.7838 90.8397 97.35 90.65C94.44 90.16 93.61 90.44 93.69 87.31C93.576 85.4088 93.6329 83.5011 93.86 81.61C94.3 79.71 94.21 80 96.21 79.42C99.075 78.6579 101.819 77.4965 104.36 75.97C110.489 72.2736 114.997 66.4 116.983 59.5236C118.968 52.6472 118.285 45.2746 115.07 38.88C111.57 31.71 102.01 32.09 96.07 36.35C86.75 43.04 85.43 54.7 84.41 65.21C82.99 79.76 84.07 94.92 84.12 109.57C84.12 116.11 84.71 124.57 91.41 127.98C93.0247 128.797 94.8104 129.219 96.62 129.21C99.897 129.12 103.082 128.108 105.81 126.29C108.961 124.364 111.654 121.774 113.7 118.7C115.782 115.695 116.933 112.144 117.01 108.49C116.958 105.935 116.226 103.439 114.89 101.26ZM94.54 66.47C94.72 62.1 97.8 43.24 104.86 45.34C105.639 45.6181 106.341 46.0752 106.911 46.6744C107.481 47.2736 107.902 47.9983 108.14 48.79C108.596 50.3867 108.675 52.0677 108.37 53.7C107.468 59.5475 104.313 64.8097 99.58 68.36C98.9231 68.8975 98.1596 69.2894 97.34 69.51C96.9265 69.6055 96.4952 69.5902 96.0896 69.4655C95.684 69.3408 95.3184 69.1113 95.03 68.8C94.6033 68.1066 94.4301 67.2868 94.54 66.48V66.47ZM106.09 114.26C104.819 116.008 103.223 117.495 101.39 118.64C99.964 119.65 98.2843 120.242 96.54 120.35C96.1932 120.365 95.8486 120.289 95.54 120.13C94.61 119.56 94.04 117.82 93.83 114.88C93.62 111.94 93.54 108.77 93.54 105.33L93.63 99.07C94.24 99.13 94.86 99.2 95.45 99.29C96.04 99.38 97.09 99.57 98.21 99.8L99.75 100.13C100.568 100.338 101.367 100.612 102.14 100.95C103.958 101.651 105.552 102.833 106.75 104.37C107.655 105.582 108.155 107.048 108.18 108.56C108.079 110.628 107.35 112.617 106.09 114.26Z" fill="white"/>
<path d="M47.6299 61.26C49.0497 63.6446 50.9053 65.741 53.0999 67.44C55.4247 69.1718 58.0898 70.3919 60.9199 71.02C62.3163 71.3964 63.7361 71.6803 65.1699 71.87C68.0799 72.36 68.9099 72.08 68.8299 75.21C68.9439 77.1113 68.887 79.0189 68.6599 80.91C68.2199 82.81 68.3099 82.52 66.3099 83.1C63.4449 83.8621 60.7013 85.0235 58.1599 86.55C52.0309 90.2464 47.5229 96.12 45.5373 102.996C43.5517 109.873 44.2347 117.245 47.4499 123.64C50.9499 130.81 60.5099 130.43 66.4499 126.17C75.7699 119.48 77.0899 107.82 78.1099 97.31C79.5299 82.76 78.4499 67.6 78.3999 52.95C78.3999 46.41 77.8099 37.95 71.1099 34.54C69.4952 33.723 67.7095 33.3014 65.8999 33.31C62.6229 33.3998 59.4377 34.4118 56.7099 36.23C53.559 38.1559 50.8664 40.7461 48.8199 43.82C46.7383 46.8247 45.5871 50.3756 45.5099 54.03C45.5624 56.5854 46.2941 59.0809 47.6299 61.26ZM67.9799 96.05C67.7999 100.42 64.7199 119.28 57.6599 117.18C56.8812 116.902 56.1787 116.445 55.609 115.846C55.0393 115.246 54.6183 114.522 54.3799 113.73C53.9236 112.133 53.8449 110.452 54.1499 108.82C55.0517 102.972 58.2068 97.7104 62.9399 94.16C63.5968 93.6225 64.3603 93.2306 65.1799 93.01C65.5933 92.9145 66.0247 92.9299 66.4303 93.0545C66.8359 93.1792 67.2014 93.4088 67.4899 93.72C67.9166 94.4134 68.0898 95.2333 67.9799 96.04V96.05ZM56.4299 48.26C57.701 46.5119 59.2966 45.0249 61.1299 43.88C62.5559 42.8698 64.2356 42.2776 65.9799 42.17C66.3267 42.1553 66.6713 42.2311 66.9799 42.39C67.9099 42.96 68.4799 44.7 68.6899 47.64C68.8999 50.58 68.9799 53.75 68.9799 57.19L68.8899 63.45C68.2799 63.39 67.6599 63.32 67.0699 63.23C66.4799 63.14 65.4299 62.95 64.3099 62.72L62.7699 62.39C61.9523 62.182 61.1529 61.9078 60.3799 61.57C58.5616 60.8689 56.9682 59.6868 55.7699 58.15C54.865 56.9382 54.3647 55.4722 54.3399 53.96C54.4406 51.8916 55.1697 49.9032 56.4299 48.26Z" fill="white"/>
</g>
<defs>
<clipPath id="clip0_43_2">
<rect width="162.53" height="162.53" fill="white"/>
</clipPath>
</defs>
</svg>
