<svg width="96" height="96" viewBox="0 0 96 96" fill="none" xmlns="http://www.w3.org/2000/svg">
<path d="M14.29 27.9903C15.7099 30.3749 17.5655 32.4713 19.76 34.1703C22.0849 35.9021 24.7499 37.1222 27.58 37.7503C28.9765 38.1266 30.3962 38.4106 31.83 38.6003C34.74 39.0903 35.57 38.8103 35.49 41.9403C35.6041 43.8415 35.5472 45.7492 35.32 47.6403C34.88 49.5403 34.97 49.2503 32.97 49.8303C30.105 50.5924 27.3615 51.7538 24.82 53.2803C18.691 56.9767 14.1831 62.8503 12.1975 69.7267C10.2118 76.6032 10.8949 83.9757 14.11 90.3703C17.61 97.5403 27.17 97.1603 33.11 92.9003C42.43 86.2103 43.75 74.5503 44.77 64.0403C46.19 49.4903 45.11 34.3303 45.06 19.6803C45.06 13.1403 44.47 4.68029 37.77 1.27029C36.1554 0.453288 34.3696 0.0317108 32.56 0.0402895C29.2831 0.130036 26.0978 1.1421 23.37 2.96029C20.2192 4.88616 17.5265 7.47641 15.48 10.5503C13.3985 13.555 12.2473 17.1058 12.17 20.7603C12.2225 23.3157 12.9542 25.8111 14.29 27.9903ZM34.64 62.7803C34.46 67.1503 31.38 86.0103 24.32 83.9103C23.5414 83.6322 22.8389 83.1752 22.2692 82.5759C21.6995 81.9767 21.2784 81.252 21.04 80.4603C20.5837 78.8636 20.505 77.1826 20.81 75.5503C21.7119 69.7028 24.867 64.4406 29.6 60.8903C30.257 60.3528 31.0204 59.9609 31.84 59.7403C32.2535 59.6448 32.6848 59.6601 33.0905 59.7848C33.4961 59.9095 33.8616 60.139 34.15 60.4503C34.5768 61.1437 34.7499 61.9636 34.64 62.7703V62.7803ZM23.09 14.9903C24.3611 13.2422 25.9568 11.7551 27.79 10.6103C29.2161 9.60006 30.8957 9.00786 32.64 8.90029C32.9868 8.88561 33.3314 8.96143 33.64 9.12029C34.57 9.69029 35.14 11.4303 35.35 14.3703C35.56 17.3103 35.64 20.4803 35.64 23.9203L35.55 30.1803C34.94 30.1203 34.32 30.0503 33.73 29.9603C33.14 29.8703 32.09 29.6803 30.97 29.4503L29.43 29.1203C28.6124 28.9123 27.8131 28.6381 27.04 28.3003C25.2218 27.5992 23.6283 26.4171 22.43 24.8803C21.5251 23.6685 21.0248 22.2025 21 20.6903C21.1007 18.6219 21.8298 16.6335 23.09 14.9903Z" fill="#AE4BFF"/>
<path d="M81.7101 68.0097C80.2902 65.6251 78.4346 63.5287 76.2401 61.8297C73.9153 60.0979 71.2502 58.8778 68.4201 58.2497C67.0236 57.8734 65.6039 57.5894 64.1701 57.3997C61.2601 56.9097 60.4301 57.1897 60.5101 54.0597C60.396 52.1584 60.4529 50.2508 60.6801 48.3597C61.1201 46.4597 61.0301 46.7497 63.0301 46.1697C65.8951 45.4076 68.6386 44.2462 71.1801 42.7197C77.3091 39.0233 81.817 33.1497 83.8026 26.2733C85.7883 19.3968 85.1052 12.0243 81.8901 5.62972C78.3901 -1.54028 68.8301 -1.16028 62.8901 3.09972C53.5701 9.78972 52.2501 21.4497 51.2301 31.9597C49.8101 46.5097 50.8901 61.6697 50.9401 76.3197C50.9401 82.8597 51.5301 91.3197 58.2301 94.7297C59.8448 95.5467 61.6305 95.9683 63.4401 95.9597C66.717 95.87 69.9023 94.8579 72.6301 93.0397C75.7809 91.1138 78.4736 88.5236 80.5201 85.4497C82.6017 82.4451 83.7528 78.8942 83.8301 75.2397C83.7776 72.6843 83.0459 70.1889 81.7101 68.0097ZM61.3601 33.2197C61.5401 28.8497 64.6201 9.98972 71.6801 12.0897C72.4588 12.3678 73.1612 12.8249 73.731 13.4241C74.3007 14.0233 74.7217 14.748 74.9601 15.5397C75.4164 17.1364 75.4951 18.8174 75.1901 20.4497C74.2882 26.2972 71.1331 31.5594 66.4001 35.1097C65.7432 35.6472 64.9797 36.0391 64.1601 36.2597C63.7466 36.3552 63.3153 36.3399 62.9097 36.2152C62.5041 36.0905 62.1385 35.861 61.8501 35.5497C61.4233 34.8563 61.2502 34.0365 61.3601 33.2297V33.2197ZM72.9101 81.0097C71.639 82.7578 70.0433 84.2449 68.2101 85.3897C66.784 86.3999 65.1044 86.9921 63.3601 87.0997C63.0133 87.1144 62.6687 87.0386 62.3601 86.8797C61.4301 86.3097 60.8601 84.5697 60.6501 81.6297C60.4401 78.6897 60.3601 75.5197 60.3601 72.0797L60.4501 65.8197C61.0601 65.8797 61.6801 65.9497 62.2701 66.0397C62.8601 66.1297 63.9101 66.3197 65.0301 66.5497L66.5701 66.8797C67.3877 67.0877 68.187 67.3619 68.9601 67.6997C70.7783 68.4008 72.3718 69.5829 73.5701 71.1197C74.475 72.3315 74.9753 73.7975 75.0001 75.3097C74.8994 77.3781 74.1703 79.3665 72.9101 81.0097Z" fill="#AE4BFF"/>
</svg>
